<svg width="1440" height="884" viewBox="0 0 1440 884" fill="none" xmlns="http://www.w3.org/2000/svg">
<path d="M954.759 0L83.5 363.814L-183 475.5L83.5 644H1509.5V332.682L1232.13 166.646L1055.55 206.324V64.7052L954.759 0Z" fill="#D9D9D9"/>
<path d="M954.759 0L83.5 363.814L-183 475.5L83.5 644H1509.5V332.682L1232.13 166.646L1055.55 206.324V64.7052L954.759 0Z" fill="#FF9933"/>
<path d="M892.759 108L21.5 472.379L-292 598.5L21.5 798.5H1447.5V441.199L1170.13 274.905L993.546 314.645V172.806L892.759 108Z" fill="#D9D9D9"/>
<path d="M892.759 108L21.5 472.379L-292 598.5L21.5 798.5H1447.5V441.199L1170.13 274.905L993.546 314.645V172.806L892.759 108Z" fill="#FF3366"/>
<path d="M-56.5 602.944V884H1369.5V571.716L1092.13 405.164L915.546 444.965V302.906L814.759 238L-56.5 602.944Z" fill="#D9D9D9"/>
<path d="M-56.5 602.944V884H1369.5V571.716L1092.13 405.164L915.546 444.965V302.906L814.759 238L-56.5 602.944Z" fill="#E72074"/>
</svg>
